<svg width="24" height="24" viewBox="0 0 24 24" fill="none" xmlns="http://www.w3.org/2000/svg">
<path d="M8.68601 4L11.293 1.393C11.4805 1.20553 11.7348 1.10021 12 1.10021C12.2652 1.10021 12.5195 1.20553 12.707 1.393L15.314 4H19C19.2652 4 19.5196 4.10536 19.7071 4.29289C19.8946 4.48043 20 4.73478 20 5V8.686L22.607 11.293C22.7945 11.4805 22.8998 11.7348 22.8998 12C22.8998 12.2652 22.7945 12.5195 22.607 12.707L20 15.314V19C20 19.2652 19.8946 19.5196 19.7071 19.7071C19.5196 19.8946 19.2652 20 19 20H15.314L12.707 22.607C12.5195 22.7945 12.2652 22.8998 12 22.8998C11.7348 22.8998 11.4805 22.7945 11.293 22.607L8.68601 20H5.00001C4.73479 20 4.48044 19.8946 4.2929 19.7071C4.10536 19.5196 4.00001 19.2652 4.00001 19V15.314L1.39301 12.707C1.20554 12.5195 1.10022 12.2652 1.10022 12C1.10022 11.7348 1.20554 11.4805 1.39301 11.293L4.00001 8.686V5C4.00001 4.73478 4.10536 4.48043 4.2929 4.29289C4.48044 4.10536 4.73479 4 5.00001 4H8.68601ZM6.00001 6V9.515L3.51501 12L6.00001 14.485V18H9.51501L12 20.485L14.485 18H18V14.485L20.485 12L18 9.515V6H14.485L12 3.515L9.51501 6H6.00001ZM12 16C10.9391 16 9.92172 15.5786 9.17158 14.8284C8.42143 14.0783 8.00001 13.0609 8.00001 12C8.00001 10.9391 8.42143 9.92172 9.17158 9.17157C9.92172 8.42143 10.9391 8 12 8C13.0609 8 14.0783 8.42143 14.8284 9.17157C15.5786 9.92172 16 10.9391 16 12C16 13.0609 15.5786 14.0783 14.8284 14.8284C14.0783 15.5786 13.0609 16 12 16ZM12 14C12.5304 14 13.0391 13.7893 13.4142 13.4142C13.7893 13.0391 14 12.5304 14 12C14 11.4696 13.7893 10.9609 13.4142 10.5858C13.0391 10.2107 12.5304 10 12 10C11.4696 10 10.9609 10.2107 10.5858 10.5858C10.2107 10.9609 10 11.4696 10 12C10 12.5304 10.2107 13.0391 10.5858 13.4142C10.9609 13.7893 11.4696 14 12 14Z" fill="white"/>
</svg>
